<svg width="91" height="30" viewBox="0 0 91 30" fill="none" xmlns="http://www.w3.org/2000/svg">
<path d="M50.184 11.2109C49.0722 13.5628 47.2624 15.4594 44.4702 16.3951L42.7379 13.7398C46.6936 12.4501 48.4 9.11195 48.4 6.0773V3.8013H51.8645V6.0773C51.8645 9.13724 53.545 12.1213 57.3973 13.3352L55.6651 15.9905C52.9762 15.1054 51.2181 13.4363 50.184 11.2109V11.2109ZM46.7453 25.3979V17.8872H50.1581V22.7426H63.1887V25.3979H46.7453V25.3979ZM59.1554 2.53687H62.594V19.5056H59.1554V2.53687Z" fill="black"/>
<path d="M73.6855 11.2362C72.6255 13.4869 70.8157 15.2824 68.0234 16.1675L66.2395 13.5628C70.1176 12.3489 71.7982 9.44073 71.8757 6.53251H67.1444V3.87719H80.0198V6.53251H75.3661C75.4436 9.2637 77.0983 11.9443 80.8213 13.1582L79.0891 15.7376C76.5037 14.9284 74.7197 13.2846 73.6855 11.2362V11.2362ZM85.3458 25.8279H81.9331V20.239H69.4454V17.5837H85.3458V25.8279V25.8279ZM85.3458 16.5469H81.9331V2.5116H85.3458V8.12571H88.5V10.8822H85.3458V16.5469Z" fill="black"/>
<path fill-rule="evenodd" clip-rule="evenodd" d="M20.2118 22.9691C19.516 21.6157 19.1243 20.087 19.1243 18.4688C19.1243 13.3408 23.0581 9.11154 28.135 8.51069L31.9825 1.5H16.1338L2.5 25.9037L18.6158 25.8784L20.2118 22.9691Z" fill="black"/>
<path d="M29.6125 9.10352C28.9575 9.10352 28.3284 9.17095 27.7079 9.28897L20.891 21.7311C22.2785 25.1113 25.6568 27.5138 29.6125 27.5138C34.8092 27.5138 39.0235 23.3917 39.0235 18.3086C39.0235 13.2256 34.8092 9.10352 29.6125 9.10352V9.10352Z" fill="#FF4040"/>
</svg>
