<svg width="24" height="24" viewBox="0 0 24 24" fill="none" xmlns="http://www.w3.org/2000/svg">
<path fill-rule="evenodd" clip-rule="evenodd" d="M14.5863 14.9915L14.5863 4.89201C14.5863 4.4778 14.9221 4.14201 15.3363 4.14201C15.7505 4.14201 16.0863 4.4778 16.0863 4.89201L16.0863 14.9915L17.7434 14.9915C18.4013 14.9915 18.778 15.7415 18.3851 16.2692L15.9876 19.4896C15.6682 19.9185 15.026 19.9194 14.7055 19.4913L12.2943 16.271C11.8994 15.7435 12.2758 14.9915 12.9347 14.9915L14.5863 14.9915ZM6.25659 9.00848L7.91364 9.00848V19.108C7.91364 19.5222 8.24942 19.858 8.66364 19.858C9.07785 19.858 9.41364 19.5222 9.41364 19.108V9.00848L11.0653 9.00848C11.7242 9.00848 12.1006 8.25647 11.7056 7.729L9.29447 4.50866C8.97395 4.08058 8.33175 4.08145 8.01239 4.51041L5.61489 7.73075C5.222 8.25849 5.59865 9.00848 6.25659 9.00848Z" fill="#212121"/>
</svg>
