<svg width="24" height="25" viewBox="0 0 24 25" fill="none" xmlns="http://www.w3.org/2000/svg">
<path fill-rule="evenodd" clip-rule="evenodd" d="M6.75 7.40179C6.05964 7.40179 5.5 7.96144 5.5 8.6518V15.74C5.5 16.4304 6.05964 16.99 6.75 16.99H7.08008C7.47812 16.99 7.80683 17.301 7.82893 17.6984C7.86314 18.3138 8.12856 18.8744 8.50151 19.3399C8.59832 19.4607 8.70017 19.5723 8.80365 19.6741C9.02696 18.9271 9.42016 18.1122 9.95563 17.32C10.0951 17.1137 10.3279 16.99 10.577 16.99H17.25C17.9404 16.99 18.5 16.4304 18.5 15.74V8.65179C18.5 7.96144 17.9404 7.40179 17.25 7.40179H6.75ZM4 8.6518C4 7.13301 5.23122 5.90179 6.75 5.90179H17.25C18.7688 5.90179 20 7.13301 20 8.65179V15.74C20 17.2588 18.7688 18.49 17.25 18.49H10.9857C10.3599 19.5101 10.0908 20.4242 10.0908 20.9738C10.0908 21.2306 9.95942 21.4695 9.74263 21.6071C9.52584 21.7447 9.25374 21.7618 9.02142 21.6525C8.47543 21.3955 7.8433 20.9173 7.33091 20.2778C6.93776 19.7871 6.59599 19.177 6.43074 18.4717C5.06236 18.3135 4 17.1508 4 15.74V8.6518Z" fill="#212121"/>
</svg>
