<svg width="24" height="24" viewBox="0 0 24 24" fill="currentColor" xmlns="http://www.w3.org/2000/svg">
<path fill-rule="evenodd" clip-rule="evenodd" d="M10.0519 3.75C9.60162 3.75 9.18612 3.99221 8.96422 4.38406L8.32837 5.50696C7.8402 6.36903 6.92609 6.90189 5.9354 6.90189H5C4.30964 6.90189 3.75 7.46154 3.75 8.1519V17.2911C3.75 17.9815 4.30964 18.5411 5 18.5411H19C19.6904 18.5411 20.25 17.9815 20.25 17.2911V8.15189C20.25 7.46154 19.6904 6.90189 19 6.90189H18.0668C17.1025 6.90189 16.2087 6.39688 15.7112 5.57093L14.9787 4.35498C14.7525 3.97955 14.3462 3.75 13.9079 3.75H10.0519ZM7.65897 3.64494C8.14713 2.78287 9.06125 2.25 10.0519 2.25H13.9079C14.8722 2.25 15.766 2.75502 16.2635 3.58096L16.996 4.79691C17.2222 5.17234 17.6285 5.40189 18.0668 5.40189H19C20.5188 5.40189 21.75 6.63311 21.75 8.15189V17.2911C21.75 18.8099 20.5188 20.0411 19 20.0411H5C3.48122 20.0411 2.25 18.8099 2.25 17.2911V8.1519C2.25 6.63311 3.48122 5.40189 5 5.40189H5.9354C6.38571 5.40189 6.80122 5.15968 7.02311 4.76783L7.65897 3.64494Z"/>
<path fill-rule="evenodd" clip-rule="evenodd" d="M12.0272 8.57281C10.1554 8.57281 8.638 10.0902 8.638 11.962C8.638 13.8339 10.1554 15.3513 12.0272 15.3513C13.8991 15.3513 15.4165 13.8339 15.4165 11.962C15.4165 10.0902 13.8991 8.57281 12.0272 8.57281ZM7.138 11.962C7.138 9.2618 9.32698 7.07281 12.0272 7.07281C14.7275 7.07281 16.9165 9.2618 16.9165 11.962C16.9165 14.6623 14.7275 16.8513 12.0272 16.8513C9.32698 16.8513 7.138 14.6623 7.138 11.962Z"/>
</svg>
