<svg width="16" height="16" viewBox="0 0 16 16" fill="none" xmlns="http://www.w3.org/2000/svg">
<path fill-rule="evenodd" clip-rule="evenodd" d="M4.49999 4.60119C4.03975 4.60119 3.66666 4.97429 3.66666 5.43452V10.16C3.66666 10.6202 4.03975 10.9933 4.49999 10.9933H4.72005C4.9854 10.9933 5.20454 11.2006 5.21927 11.4656C5.24208 11.8758 5.41903 12.2496 5.66766 12.5599C5.7322 12.6405 5.8001 12.7149 5.86909 12.7827C6.01797 12.2847 6.2801 11.7414 6.63708 11.2133C6.73006 11.0758 6.88527 10.9933 7.05131 10.9933H11.5C11.9602 10.9933 12.3333 10.6202 12.3333 10.16V5.43452C12.3333 4.97428 11.9602 4.60119 11.5 4.60119H4.49999ZM2.66666 5.43452C2.66666 4.422 3.48747 3.60119 4.49999 3.60119H11.5C12.5125 3.60119 13.3333 4.422 13.3333 5.43452V10.16C13.3333 11.1725 12.5125 11.9933 11.5 11.9933H7.32377C6.9066 12.6734 6.72717 13.2828 6.72717 13.6492C6.72717 13.8204 6.6396 13.9797 6.49508 14.0714C6.35055 14.1631 6.16915 14.1745 6.01427 14.1016C5.65028 13.9303 5.22886 13.6115 4.88726 13.1852C4.62516 12.8581 4.39732 12.4513 4.28715 11.9811C3.37489 11.8757 2.66666 11.1005 2.66666 10.16V5.43452Z" fill="#999999"/>
</svg>
