<svg width="31" height="31" viewBox="0 0 31 31" fill="none" xmlns="http://www.w3.org/2000/svg">
<path fill-rule="evenodd" clip-rule="evenodd" d="M7.65698 8.27014C7.1047 8.27014 6.65698 8.71786 6.65698 9.27014V20.1339C6.65698 20.6862 7.1047 21.1339 7.65698 21.1339H8.98887C9.52985 21.1339 9.97275 21.5641 9.98845 22.1049C10.0133 22.9607 10.3682 23.7395 10.8764 24.3859C11.0189 24.5672 11.17 24.7336 11.3237 24.8839C11.6345 23.8339 12.195 22.6818 12.965 21.5659C13.1517 21.2954 13.4594 21.1339 13.7881 21.1339H23.2132C23.7655 21.1339 24.2132 20.6862 24.2132 20.1339V9.27014C24.2132 8.71786 23.7655 8.27014 23.2132 8.27014H7.65698ZM4.65698 9.27014C4.65698 7.61328 6.00013 6.27014 7.65698 6.27014H23.2132C24.87 6.27014 26.2132 7.61329 26.2132 9.27014V20.1339C26.2132 21.7908 24.8701 23.1339 23.2132 23.1339H14.3262C13.4298 24.5591 13.0427 25.8478 13.0427 26.6172C13.0427 26.9596 12.8675 27.2783 12.5782 27.4617C12.289 27.6451 11.9261 27.6677 11.6163 27.5217C10.8693 27.1696 10.0009 26.5083 9.30413 25.6221C8.77208 24.9454 8.31479 24.1043 8.10675 23.1339H7.65698C6.00013 23.1339 4.65698 21.7908 4.65698 20.1339V9.27014Z" fill="#212121"/>
<path fill-rule="evenodd" clip-rule="evenodd" d="M9.56689 13.3422C9.56689 12.7899 10.0146 12.3422 10.5669 12.3422H20.3312C20.8835 12.3422 21.3312 12.7899 21.3312 13.3422C21.3312 13.8944 20.8835 14.3422 20.3312 14.3422H10.5669C10.0146 14.3422 9.56689 13.8944 9.56689 13.3422ZM9.56689 17.0525C9.56689 16.5002 10.0146 16.0525 10.5669 16.0525H20.3312C20.8835 16.0525 21.3312 16.5002 21.3312 17.0525C21.3312 17.6047 20.8835 18.0525 20.3312 18.0525H10.5669C10.0146 18.0525 9.56689 17.6047 9.56689 17.0525Z" fill="#212121"/>
</svg>
