<svg width="31" height="31" viewBox="0 0 31 31" fill="none" xmlns="http://www.w3.org/2000/svg">
<path fill-rule="evenodd" clip-rule="evenodd" d="M7.65693 6.47021C6.11054 6.47021 4.85693 7.72381 4.85693 9.27021V20.134C4.85693 21.6804 6.11054 22.934 7.65693 22.934L8.24951 22.934C8.41152 23.9649 8.87107 24.8599 9.42305 25.5754C10.1084 26.4638 10.971 27.1225 11.7015 27.4669C11.9494 27.5837 12.2397 27.5656 12.4711 27.4189C12.7025 27.2721 12.8427 27.0172 12.8427 26.7433C12.8427 25.8808 13.2914 24.4612 14.2983 22.934L23.2131 22.934C24.7595 22.934 26.0131 21.6804 26.0131 20.134V9.27021C26.0131 7.72382 24.7595 6.47021 23.2131 6.47021H7.65693ZM9.76678 13.3423C9.76678 12.9004 10.125 12.5423 10.5668 12.5423H20.3311C20.7729 12.5423 21.1311 12.9004 21.1311 13.3423C21.1311 13.7841 20.7729 14.1423 20.3311 14.1423H10.5668C10.125 14.1423 9.76678 13.7841 9.76678 13.3423ZM9.76678 17.0525C9.76678 16.6107 10.125 16.2525 10.5668 16.2525H20.3311C20.7729 16.2525 21.1311 16.6107 21.1311 17.0525C21.1311 17.4944 20.7729 17.8526 20.3311 17.8526H10.5668C10.125 17.8526 9.76678 17.4944 9.76678 17.0525Z" fill="#FF4040"/>
</svg>
