<svg width="25" height="25" viewBox="0 0 25 25" fill="currentColor" xmlns="http://www.w3.org/2000/svg">
<path fill-rule="evenodd" clip-rule="evenodd" d="M10.8143 4.30684C11.8226 3.49196 13.2631 3.49196 14.2714 4.30684L20.3143 9.1905C20.9603 9.7126 21.3357 10.4987 21.3357 11.3293V20.8742C21.3357 21.2884 20.9999 21.6242 20.5857 21.6242C20.1715 21.6242 19.8357 21.2884 19.8357 20.8742V11.3293C19.8357 10.9518 19.6651 10.5945 19.3714 10.3571L13.3286 5.47348C12.8702 5.10308 12.2155 5.10308 11.7572 5.47348L5.7143 10.3571C5.42065 10.5945 5.25 10.9518 5.25 11.3293V20.8742C5.25 21.2884 4.91421 21.6242 4.5 21.6242C4.08579 21.6242 3.75 21.2884 3.75 20.8742V11.3293C3.75 10.4987 4.12543 9.7126 4.77145 9.1905L10.8143 4.30684Z"/>
<path fill-rule="evenodd" clip-rule="evenodd" d="M7.26285 12.7359C7.32936 12.3812 7.63909 12.1241 8.00001 12.1241H13C13.2231 12.1241 13.4346 12.2235 13.5771 12.3952C13.7196 12.5669 13.7783 12.7931 13.7372 13.0124L12.2372 21.0124C12.1706 21.3671 11.8609 21.6241 11.5 21.6241H6.50001C6.27689 21.6241 6.06536 21.5248 5.92287 21.3531C5.78039 21.1814 5.72173 20.9552 5.76285 20.7359L7.26285 12.7359ZM8.62245 13.6241L7.4037 20.1241H10.8776L12.0963 13.6241H8.62245Z"/>
<path fill-rule="evenodd" clip-rule="evenodd" d="M15.5 15.6241C14.2574 15.6241 13.25 16.6315 13.25 17.8741C13.25 19.1168 14.2574 20.1241 15.5 20.1241C16.7426 20.1241 17.75 19.1168 17.75 17.8741C17.75 16.6315 16.7426 15.6241 15.5 15.6241ZM11.75 17.8741C11.75 15.8031 13.4289 14.1241 15.5 14.1241C17.5711 14.1241 19.25 15.8031 19.25 17.8741C19.25 19.9452 17.5711 21.6241 15.5 21.6241C13.4289 21.6241 11.75 19.9452 11.75 17.8741Z"/>
</svg>
