<svg width="25" height="25" viewBox="0 0 25 25" fill="currentColor" xmlns="http://www.w3.org/2000/svg">
<path fill-rule="evenodd" clip-rule="evenodd" d="M14.2714 4.30684C13.2631 3.49196 11.8226 3.49196 10.8143 4.30684L4.77145 9.1905C4.12543 9.7126 3.75 10.4987 3.75 11.3293V18.8742C3.75 20.393 4.98122 21.6242 6.5 21.6242H18.5857C20.1045 21.6242 21.3357 20.393 21.3357 18.8742V11.3293C21.3357 10.4987 20.9603 9.7126 20.3143 9.1905L14.2714 4.30684ZM8 12.1242C7.63909 12.1242 7.32936 12.3812 7.26285 12.736L5.76285 20.736C5.72173 20.9553 5.78038 21.1815 5.92287 21.3532C6.06536 21.5249 6.27689 21.6242 6.5 21.6242H11.5C11.8609 21.6242 12.1706 21.3671 12.2372 21.0124L12.4234 20.0189C13.1012 20.9894 14.2265 21.6242 15.5 21.6242C17.5711 21.6242 19.25 19.9453 19.25 17.8742C19.25 15.8031 17.5711 14.1242 15.5 14.1242C14.726 14.1242 14.0067 14.3587 13.4094 14.7606L13.7372 13.0124C13.7783 12.7931 13.7196 12.5669 13.5771 12.3952C13.4346 12.2235 13.2231 12.1242 13 12.1242H8ZM7.4037 20.1242L8.62245 13.6242H12.0963L10.8776 20.1242H7.4037ZM13.25 17.8742C13.25 16.6316 14.2574 15.6242 15.5 15.6242C16.7426 15.6242 17.75 16.6316 17.75 17.8742C17.75 19.1168 16.7426 20.1242 15.5 20.1242C14.2574 20.1242 13.25 19.1168 13.25 17.8742Z"/>
</svg>
