<svg width="24" height="24" viewBox="0 0 24 24" fill="none" xmlns="http://www.w3.org/2000/svg">
<path fill-rule="evenodd" clip-rule="evenodd" d="M11.7768 5.229C8.0225 5.229 4.979 8.2725 4.979 12.0268C4.979 15.7812 8.0225 18.8247 11.7768 18.8247C15.5312 18.8247 18.5747 15.7812 18.5747 12.0268C18.5747 8.2725 15.5312 5.229 11.7768 5.229ZM3.479 12.0268C3.479 7.44407 7.19407 3.729 11.7768 3.729C16.3596 3.729 20.0747 7.44407 20.0747 12.0268C20.0747 16.6096 16.3596 20.3247 11.7768 20.3247C7.19407 20.3247 3.479 16.6096 3.479 12.0268Z" fill="#212121"/>
<path fill-rule="evenodd" clip-rule="evenodd" d="M11.75 11.766C12.1642 11.766 12.5 12.1018 12.5 12.516L12.5 15.6714C12.5 16.0857 12.1642 16.4214 11.75 16.4214C11.3358 16.4214 11 16.0857 11 15.6714L11 12.516C11 12.1018 11.3358 11.766 11.75 11.766Z" fill="#212121"/>
<path d="M12.9217 9.49904C12.9217 10.1482 12.3954 10.6745 11.7462 10.6745C11.097 10.6745 10.5707 10.1482 10.5707 9.49904C10.5707 8.84983 11.097 8.32355 11.7462 8.32355C12.3954 8.32355 12.9217 8.84983 12.9217 9.49904Z" fill="#212121"/>
</svg>
