<svg width="24" height="24" viewBox="0 0 24 24" fill="currentColor" xmlns="http://www.w3.org/2000/svg">
<path fill-rule="evenodd" clip-rule="evenodd" d="M12 5.97338C11.7669 5.77004 11.4994 5.57594 11.2134 5.40041C10.5905 5.01798 9.81344 4.6821 8.96436 4.51648C7.23221 4.17862 5.18991 4.55985 3.68401 6.64494C2.65267 8.07295 2.50943 9.6768 2.8808 11.2343C3.24689 12.7696 4.11527 14.2854 5.14992 15.6459C7.21448 18.3606 10.0977 20.6577 11.6402 21.5009L12 21.6976L12.3597 21.5009C13.9023 20.6577 16.7855 18.3606 18.8501 15.6459C19.8847 14.2854 20.7531 12.7696 21.1192 11.2343C21.4905 9.6768 21.3473 8.07295 20.316 6.64495C18.8101 4.55985 16.7678 4.17862 15.0356 4.51648C14.1865 4.6821 13.4095 5.01798 12.7865 5.40041C12.5006 5.57594 12.2331 5.77004 12 5.97338ZM8.67719 5.98874C7.40987 5.74154 6.00284 5.99622 4.90003 7.52318C4.1778 8.52319 4.04645 9.65567 4.33989 10.8863C4.63861 12.1391 5.37446 13.4632 6.34387 14.7379C8.12743 17.0831 10.5685 19.0904 12 19.9745C13.4315 19.0904 15.8725 17.0831 17.6561 14.7379C18.6255 13.4632 19.3614 12.1391 19.6601 10.8863C19.9535 9.65568 19.8222 8.52319 19.0999 7.52318C17.9971 5.99622 16.5901 5.74154 15.3228 5.98874C14.6721 6.11565 14.0619 6.37753 13.5713 6.67872C13.0654 6.98933 12.7503 7.30196 12.6327 7.4867L12 8.48103L11.3672 7.4867C11.2497 7.30196 10.9346 6.98933 10.4286 6.67872C9.93805 6.37753 9.32785 6.11565 8.67719 5.98874Z"/>
</svg>
