<svg width="24" height="24" viewBox="0 0 24 24" fill="currentColor" xmlns="http://www.w3.org/2000/svg">
<path fill-rule="evenodd" clip-rule="evenodd" d="M11.2134 5.40041C11.4994 5.57594 11.7669 5.77004 12 5.97338C12.2331 5.77004 12.5006 5.57594 12.7865 5.40041C13.4095 5.01798 14.1865 4.6821 15.0356 4.51648C16.7678 4.17862 18.8101 4.55985 20.316 6.64495C21.3473 8.07295 21.4905 9.6768 21.1192 11.2343C20.7531 12.7696 19.8847 14.2854 18.8501 15.6459C16.7855 18.3606 13.9023 20.6576 12.3597 21.5009L12 21.6976L11.6402 21.5009C10.0977 20.6576 7.21448 18.3606 5.14992 15.6459C4.11527 14.2854 3.24689 12.7696 2.8808 11.2343C2.50943 9.6768 2.65267 8.07295 3.68401 6.64494C5.18991 4.55985 7.23221 4.17862 8.96436 4.51648C9.81344 4.6821 10.5905 5.01798 11.2134 5.40041Z"/>
</svg>
