<svg width="24" height="24" viewBox="0 0 24 24" fill="none" xmlns="http://www.w3.org/2000/svg">
<path fill-rule="evenodd" clip-rule="evenodd" d="M12 1.62132C12.8284 1.62132 13.5 2.29289 13.5 3.12132L13.5 5.94975C13.5 6.77817 12.8284 7.44975 12 7.44975C11.1716 7.44975 10.5 6.77817 10.5 5.94975L10.5 3.12132C10.5 2.29289 11.1716 1.62132 12 1.62132Z" fill="#212121"/>
<path fill-rule="evenodd" clip-rule="evenodd" d="M4.43934 4.43934C5.02513 3.85355 5.97487 3.85355 6.56066 4.43934L8.56066 6.43934C9.14645 7.02513 9.14645 7.97487 8.56066 8.56066C7.97487 9.14645 7.02513 9.14645 6.43934 8.56066L4.43934 6.56066C3.85355 5.97487 3.85355 5.02513 4.43934 4.43934Z" fill="black" fill-opacity="0.9"/>
<path fill-rule="evenodd" clip-rule="evenodd" d="M1.62132 11.5355C1.62132 10.7071 2.29289 10.0355 3.12132 10.0355L5.94975 10.0355C6.77817 10.0355 7.44975 10.7071 7.44975 11.5355C7.44975 12.3639 6.77817 13.0355 5.94975 13.0355L3.12132 13.0355C2.29289 13.0355 1.62132 12.3639 1.62132 11.5355Z" fill="black" fill-opacity="0.8"/>
<path fill-rule="evenodd" clip-rule="evenodd" d="M19.5607 4.43934C18.9749 3.85355 18.0251 3.85355 17.4393 4.43934L15.4393 6.43934C14.8536 7.02513 14.8536 7.97487 15.4393 8.56066C16.0251 9.14645 16.9749 9.14645 17.5607 8.56066L19.5607 6.56066C20.1464 5.97487 20.1464 5.02513 19.5607 4.43934Z" fill="black" fill-opacity="0.1"/>
<path fill-rule="evenodd" clip-rule="evenodd" d="M12 22.3787C11.1716 22.3787 10.5 21.7071 10.5 20.8787L10.5 18.0503C10.5 17.2218 11.1716 16.5503 12 16.5503C12.8284 16.5503 13.5 17.2218 13.5 18.0503L13.5 20.8787C13.5 21.7071 12.8284 22.3787 12 22.3787Z" fill="black" fill-opacity="0.5"/>
<path fill-rule="evenodd" clip-rule="evenodd" d="M19.5607 19.5607C18.9749 20.1464 18.0251 20.1464 17.4393 19.5607L15.4393 17.5607C14.8536 16.9749 14.8536 16.0251 15.4393 15.4393C16.0251 14.8536 16.9749 14.8536 17.5607 15.4393L19.5607 17.4393C20.1464 18.0251 20.1464 18.9749 19.5607 19.5607Z" fill="black" fill-opacity="0.35"/>
<path fill-rule="evenodd" clip-rule="evenodd" d="M4.43934 19.5607C5.02513 20.1464 5.97487 20.1464 6.56066 19.5607L8.56066 17.5607C9.14645 16.9749 9.14645 16.0251 8.56066 15.4393C7.97487 14.8536 7.02513 14.8536 6.43934 15.4393L4.43934 17.4393C3.85355 18.0251 3.85355 18.9749 4.43934 19.5607Z" fill="black" fill-opacity="0.65"/>
<path fill-rule="evenodd" clip-rule="evenodd" d="M22.3787 11.5355C22.3787 10.7071 21.7071 10.0355 20.8787 10.0355L18.0503 10.0355C17.2218 10.0355 16.5503 10.7071 16.5503 11.5355C16.5503 12.3639 17.2218 13.0355 18.0503 13.0355L20.8787 13.0355C21.7071 13.0355 22.3787 12.3639 22.3787 11.5355Z" fill="black" fill-opacity="0.2"/>
</svg>
