<svg width="24" height="25" viewBox="0 0 24 25" fill="currentColor" xmlns="http://www.w3.org/2000/svg">
<path fill-rule="evenodd" clip-rule="evenodd" d="M4.53678 10.5331C4.7088 9.15687 5.87865 8.12415 7.26554 8.12415H16.7344C18.1213 8.12415 19.2912 9.15687 19.4632 10.5331L20.4632 18.533C20.6683 20.1744 19.3885 21.6241 17.7344 21.6241H6.26554C4.61142 21.6241 3.33161 20.1744 3.53678 18.533L4.53678 10.5331ZM7.26554 9.62415C6.63514 9.62415 6.10339 10.0936 6.02519 10.7191L5.02519 18.7191C4.93194 19.4652 5.51367 20.1241 6.26554 20.1241H17.7344C18.4863 20.1241 19.068 19.4652 18.9748 18.7191L17.9748 10.7191C17.8966 10.0936 17.3648 9.62415 16.7344 9.62415H7.26554Z"/>
<path fill-rule="evenodd" clip-rule="evenodd" d="M9.48086 11.1244C9.78411 11.1166 10.0622 11.2923 10.1854 11.5695L11.6846 14.9428L12.9144 13.4056C13.0705 13.2104 13.3137 13.1059 13.5628 13.1268C13.8119 13.1477 14.0342 13.2914 14.1556 13.5099L16.6556 18.0099C16.7847 18.2422 16.7812 18.5255 16.6464 18.7545C16.5116 18.9835 16.2657 19.1241 16 19.1241H7C6.75291 19.1241 6.52166 19.0024 6.38177 18.7987C6.24188 18.5951 6.21129 18.3355 6.29999 18.1049L8.79999 11.6049C8.90889 11.3218 9.17761 11.1321 9.48086 11.1244ZM9.55002 13.8334L8.09203 17.6241H14.7254L13.3873 15.2156L12.0857 16.8427C11.9221 17.0471 11.6637 17.1515 11.4041 17.118C11.1444 17.0845 10.921 16.918 10.8146 16.6788L9.55002 13.8334Z"/>
<path d="M17.5 11.8741C17.5 12.4264 17.0523 12.8741 16.5 12.8741C15.9477 12.8741 15.5 12.4264 15.5 11.8741C15.5 11.3219 15.9477 10.8741 16.5 10.8741C17.0523 10.8741 17.5 11.3219 17.5 11.8741Z"/>
<path fill-rule="evenodd" clip-rule="evenodd" d="M10.4084 5.60828C9.97081 6.41057 9.75 7.41141 9.75 8.12415C9.75 8.53836 9.41421 8.87415 9 8.87415C8.58579 8.87415 8.25 8.53836 8.25 8.12415C8.25 7.17021 8.52919 5.92105 9.09158 4.89001C9.64604 3.87349 10.5955 2.87415 12 2.87415C13.4045 2.87415 14.354 3.87349 14.9084 4.89001C15.4708 5.92105 15.75 7.17021 15.75 8.12415C15.75 8.53836 15.4142 8.87415 15 8.87415C14.5858 8.87415 14.25 8.53836 14.25 8.12415C14.25 7.41141 14.0292 6.41057 13.5916 5.60828C13.146 4.79147 12.5955 4.37415 12 4.37415C11.4045 4.37415 10.854 4.79147 10.4084 5.60828Z"/>
</svg>
