<svg width="24" height="25" viewBox="0 0 24 25" fill="none" xmlns="http://www.w3.org/2000/svg">
<path fill-rule="evenodd" clip-rule="evenodd" d="M10.4084 6.35828C10.1097 6.90598 9.91195 7.54621 9.81656 8.12415H14.1834C14.088 7.54621 13.8903 6.90598 13.5916 6.35828C13.146 5.54147 12.5955 5.12415 12 5.12415C11.4044 5.12415 10.8539 5.54147 10.4084 6.35828ZM9.09156 5.64001C8.66752 6.4174 8.40449 7.31879 8.30073 8.12415H7.26554C5.87865 8.12415 4.7088 9.15687 4.53678 10.5331L3.53678 18.533C3.33161 20.1744 4.61142 21.6241 6.26554 21.6241H17.7344C19.3885 21.6241 20.6683 20.1744 20.4632 18.533L19.4632 10.5331C19.2912 9.15687 18.1213 8.12415 16.7344 8.12415H15.6992C15.5955 7.31879 15.3324 6.4174 14.9084 5.64001C14.3539 4.62349 13.4044 3.62415 12 3.62415C10.5955 3.62415 9.64602 4.62349 9.09156 5.64001ZM10.1853 11.5695C10.0621 11.2923 9.78408 11.1166 9.48083 11.1244C9.17759 11.1321 8.90886 11.3218 8.79997 11.6049L6.29997 18.1049C6.21126 18.3355 6.24185 18.5951 6.38174 18.7987C6.52164 19.0024 6.75288 19.1241 6.99998 19.1241H16C16.2657 19.1241 16.5116 18.9835 16.6464 18.7545C16.7811 18.5255 16.7846 18.2422 16.6556 18.0099L14.1556 13.5099C14.0342 13.2914 13.8119 13.1477 13.5628 13.1268C13.3137 13.1058 13.0705 13.2104 12.9143 13.4056L11.6846 14.9428L10.1853 11.5695ZM8.092 17.6241L9.55 13.8334L10.8146 16.6787C10.921 16.918 11.1444 17.0845 11.404 17.118C11.6637 17.1515 11.9221 17.0471 12.0856 16.8427L13.3873 15.2156L14.7253 17.6241H8.092ZM16.5 12.8741C17.0523 12.8741 17.5 12.4264 17.5 11.8741C17.5 11.3219 17.0523 10.8741 16.5 10.8741C15.9477 10.8741 15.5 11.3219 15.5 11.8741C15.5 12.4264 15.9477 12.8741 16.5 12.8741Z" fill="#FF4040"/>
</svg>
