<svg width="25" height="24" viewBox="0 0 25 24" fill="none" xmlns="http://www.w3.org/2000/svg">
<path fill-rule="evenodd" clip-rule="evenodd" d="M8.04054 5.67599C9.57541 4.7043 11.2968 4.40356 12.4358 4.42373C12.793 4.43006 13.0774 4.7247 13.071 5.08184C13.0647 5.43898 12.7701 5.72337 12.4129 5.71704C11.4805 5.70052 10.0178 5.95517 8.73243 6.7689C7.47263 7.56645 6.36386 8.90988 6.08189 11.1455C5.72397 13.9834 6.71457 15.7904 8.04262 16.877C9.40907 17.995 11.1747 18.3835 12.3587 18.2627C13.6374 18.1322 15.2605 17.7155 16.6056 16.8275C17.9315 15.9522 18.9836 14.6259 19.2057 12.619C19.4098 10.7737 18.7166 9.37406 17.3615 8.4784C15.9685 7.55775 13.8055 7.12812 11.0451 7.4607C10.6905 7.50343 10.3683 7.25058 10.3256 6.89595C10.2829 6.54132 10.5357 6.2192 10.8904 6.17647C13.8303 5.82227 16.3375 6.25112 18.0747 7.39928C19.8497 8.57243 20.7468 10.4519 20.4913 12.7612C20.22 15.2136 18.9075 16.8578 17.3183 17.907C15.7483 18.9434 13.906 19.405 12.49 19.5495C10.9793 19.7037 8.86796 19.2236 7.22353 17.8781C5.5407 16.5013 4.38657 14.2501 4.79854 10.9837C5.13249 8.33588 6.4801 6.66386 8.04054 5.67599Z" fill="white"/>
<path d="M9.0035 10.494C9.93717 10.5305 9.68714 11.2858 9.44541 11.6589C8.7487 12.6883 8.3036 12.2093 8.16813 11.8412C8.05756 11.3769 8.06983 10.4575 9.0035 10.494Z" fill="white"/>
<path d="M14.4582 10.6945C15.2187 11.2374 14.5952 11.7316 14.1883 11.9109C13.041 12.3891 12.9318 11.7444 13.0206 11.3623C13.1829 10.9135 13.6977 10.1517 14.4582 10.6945Z" fill="white"/>
<path fill-rule="evenodd" clip-rule="evenodd" d="M14.1656 15.1099C13.3647 15.1051 12.5766 15.2037 11.9996 15.466C11.3588 15.7573 11.174 16.0016 11.1302 16.0891C11.1289 16.0918 11.1277 16.0943 11.1266 16.0965C11.2953 16.3719 11.2352 16.7361 10.9754 16.9412C10.6951 17.1626 10.2884 17.1148 10.067 16.8345C9.809 16.5077 9.72445 16.0089 9.97301 15.5112C10.2066 15.0433 10.7002 14.6358 11.4643 14.2885C12.2921 13.9122 13.2999 13.8112 14.1733 13.8164C15.0581 13.8217 15.8792 13.937 16.3791 14.0457C16.7282 14.1215 16.9496 14.466 16.8737 14.8151C16.7979 15.1641 16.4534 15.3855 16.1044 15.3097C15.6864 15.2188 14.9549 15.1146 14.1656 15.1099Z" fill="white"/>
</svg>
