<svg width="25" height="25" viewBox="0 0 25 25" fill="currentColor" xmlns="http://www.w3.org/2000/svg">
<path fill-rule="evenodd" clip-rule="evenodd" d="M7.65691 11.8886C7.54624 10.5643 7.70097 8.9667 8.40592 7.73086C9.07634 6.55556 10.2868 5.62415 12.5326 5.62415C14.7892 5.62415 16.0013 6.56457 16.6699 7.74958C17.3733 8.99596 17.5214 10.6045 17.4049 11.9283C17.338 12.6899 17.6071 13.4629 18.17 14.0084C18.4405 14.2706 18.7497 14.5946 19.0168 14.9342C19.291 15.2829 19.4853 15.6038 19.5711 15.8613C19.7025 16.2553 19.6789 16.7541 19.5174 17.1338C19.3592 17.5056 19.1465 17.6241 18.9439 17.6241H16.2826H8.78262H6.14458C5.99396 17.6241 5.80265 17.5394 5.63833 17.1396C5.47451 16.7409 5.43136 16.2047 5.51806 15.7712C5.5593 15.5651 5.70916 15.2765 5.97501 14.934C6.23024 14.6053 6.54401 14.2879 6.82761 14.0275C7.4231 13.4807 7.72332 12.6833 7.65691 11.8886ZM8.8688 19.1241H6.14458C5.13815 19.1241 4.53502 18.4011 4.2509 17.7097C3.96628 17.017 3.90697 16.1781 4.04719 15.4771C4.1566 14.93 4.47509 14.42 4.79018 14.0142C5.1159 13.5946 5.49566 13.2141 5.81306 12.9226C6.05892 12.6969 6.19084 12.3571 6.16212 12.0135C6.03806 10.5289 6.1901 8.58802 7.103 6.98764C8.05043 5.32671 9.76885 4.12415 12.5326 4.12415C15.3111 4.12415 17.0323 5.33954 17.9763 7.01241C18.8857 8.62391 19.0297 10.5753 18.8992 12.0597C18.8701 12.3906 18.9892 12.7135 19.2139 12.9313C19.5127 13.2209 19.8729 13.5962 20.1959 14.0069C20.5117 14.4085 20.8281 14.8889 20.9941 15.387C21.2435 16.1351 21.1996 17.0113 20.8976 17.7211C20.5923 18.4388 19.9452 19.1241 18.9439 19.1241H16.1965C16.134 19.4336 16.0241 19.8183 15.8284 20.2096C15.5965 20.6735 15.2367 21.1603 14.683 21.5294C14.1247 21.9017 13.4139 22.1241 12.5326 22.1241C11.6514 22.1241 10.9406 21.9017 10.3822 21.5294C9.82855 21.1603 9.46879 20.6735 9.2368 20.2096C9.04117 19.8183 8.93124 19.4336 8.8688 19.1241ZM10.4141 19.1241C10.4554 19.2589 10.509 19.3999 10.5784 19.5387C10.7215 19.8248 10.9242 20.088 11.2143 20.2814C11.4997 20.4716 11.9139 20.6241 12.5326 20.6241C13.1514 20.6241 13.5656 20.4716 13.851 20.2814C14.141 20.088 14.3438 19.8248 14.4868 19.5387C14.5562 19.3999 14.6099 19.2589 14.6511 19.1241H10.4141Z"/>
<circle cx="17" cy="6.37415" r="4.5"/>
</svg>
