<svg width="25" height="25" viewBox="0 0 25 25" fill="currentColor" xmlns="http://www.w3.org/2000/svg">
<path fill-rule="evenodd" clip-rule="evenodd" d="M7.62432 11.8886C7.51365 10.5643 7.66838 8.9667 8.37333 7.73086C9.04375 6.55556 10.2542 5.62415 12.5 5.62415C14.7566 5.62415 15.9687 6.56457 16.6373 7.74958C17.3407 8.99596 17.4888 10.6045 17.3723 11.9283C17.3054 12.6899 17.5745 13.4629 18.1374 14.0084C18.4079 14.2706 18.7171 14.5946 18.9842 14.9342C19.2584 15.2829 19.4527 15.6038 19.5385 15.8613C19.6699 16.2553 19.6463 16.7541 19.4848 17.1338C19.3266 17.5056 19.1139 17.6241 18.9113 17.6241H16.25H8.75003H6.11198C5.96137 17.6241 5.77005 17.5394 5.60574 17.1396C5.44191 16.7409 5.39877 16.2047 5.48547 15.7712C5.5267 15.5651 5.67657 15.2765 5.94242 14.934C6.19764 14.6053 6.51142 14.2879 6.79502 14.0275C7.39051 13.4807 7.69073 12.6833 7.62432 11.8886ZM8.8362 19.1241H6.11198C5.10555 19.1241 4.50243 18.4011 4.2183 17.7097C3.93368 17.017 3.87438 16.1781 4.0146 15.4771C4.12401 14.93 4.4425 14.42 4.75759 14.0142C5.08331 13.5946 5.46306 13.2141 5.78047 12.9226C6.02632 12.6969 6.15825 12.3571 6.12953 12.0135C6.00546 10.5289 6.15751 8.58802 7.0704 6.98764C8.01783 5.32671 9.73626 4.12415 12.5 4.12415C15.2785 4.12415 16.9997 5.33954 17.9437 7.01241C18.8531 8.62391 18.9971 10.5753 18.8666 12.0597C18.8375 12.3906 18.9566 12.7135 19.1813 12.9313C19.4801 13.2209 19.8403 13.5962 20.1633 14.0069C20.4791 14.4085 20.7955 14.8889 20.9615 15.387C21.2109 16.1351 21.167 17.0113 20.865 17.7211C20.5597 18.4388 19.9126 19.1241 18.9113 19.1241H16.1639C16.1014 19.4336 15.9915 19.8183 15.7959 20.2096C15.5639 20.6735 15.2041 21.1603 14.6504 21.5294C14.0921 21.9017 13.3813 22.1241 12.5 22.1241C11.6188 22.1241 10.908 21.9017 10.3496 21.5294C9.79595 21.1603 9.4362 20.6735 9.20421 20.2096C9.00858 19.8183 8.89865 19.4336 8.8362 19.1241ZM10.3815 19.1241C10.4228 19.2589 10.4764 19.3999 10.5459 19.5387C10.6889 19.8248 10.8916 20.088 11.1817 20.2814C11.4671 20.4716 11.8813 20.6241 12.5 20.6241C13.1188 20.6241 13.533 20.4716 13.8184 20.2814C14.1085 20.088 14.3112 19.8248 14.4542 19.5387C14.5236 19.3999 14.5773 19.2589 14.6185 19.1241H10.3815Z"/>
</svg>
