<svg width="24" height="25" viewBox="0 0 24 25" fill="currentColor" xmlns="http://www.w3.org/2000/svg">
<path fill-rule="evenodd" clip-rule="evenodd" d="M12 5.25C7.99594 5.25 4.75 8.49594 4.75 12.5C4.75 16.5041 7.99594 19.75 12 19.75C16.0041 19.75 19.25 16.5041 19.25 12.5C19.25 8.49594 16.0041 5.25 12 5.25ZM3.25 12.5C3.25 7.66751 7.16751 3.75 12 3.75C16.8325 3.75 20.75 7.66751 20.75 12.5C20.75 17.3325 16.8325 21.25 12 21.25C7.16751 21.25 3.25 17.3325 3.25 12.5Z"/>
<path fill-rule="evenodd" clip-rule="evenodd" d="M16.4021 9.16957C16.7926 9.5601 16.7926 10.1933 16.4021 10.5838L11.1138 15.8721C10.9245 16.0613 10.6674 16.1668 10.3998 16.165C10.1323 16.1632 9.87661 16.0542 9.68999 15.8625L7.6734 13.7903C7.28822 13.3945 7.29683 12.7614 7.69262 12.3762C8.08842 11.991 8.72153 11.9996 9.10671 12.3954L10.4163 13.7411L14.9879 9.16957C15.3784 8.77905 16.0116 8.77905 16.4021 9.16957Z"/>
</svg>
