<svg width="24" height="24" viewBox="0 0 24 24" fill="none" xmlns="http://www.w3.org/2000/svg">
<path fill-rule="evenodd" clip-rule="evenodd" d="M3.69727 7.26526C3.69727 5.74648 4.92848 4.51526 6.44727 4.51526H17.5527C19.0715 4.51526 20.3027 5.74647 20.3027 7.26526V16.7348C20.3027 18.2536 19.0715 19.4848 17.5527 19.4848H6.44727C4.92849 19.4848 3.69727 18.2536 3.69727 16.7348V7.26526ZM10.3251 8.86794C10.2019 8.59074 9.92388 8.41505 9.62063 8.42279C9.31738 8.43053 9.04866 8.62019 8.93976 8.90331L6.57954 15.0399C6.49083 15.2705 6.52142 15.5301 6.66131 15.7337C6.8012 15.9374 7.03245 16.0591 7.27955 16.0591H15.7764C16.0421 16.0591 16.288 15.9185 16.4228 15.6895C16.5575 15.4605 16.561 15.1772 16.432 14.9449L14.0718 10.6965C13.9503 10.478 13.728 10.3343 13.4789 10.3134C13.2298 10.2924 12.9867 10.397 12.8305 10.5922L11.7125 11.9896L10.3251 8.86794ZM8.37157 14.5591L9.68979 11.1318L10.8426 13.7256C10.9489 13.9648 11.1723 14.1313 11.432 14.1648C11.6917 14.1983 11.95 14.0939 12.1136 13.8895L13.3034 12.4022L14.5017 14.5591H8.37157ZM16.2484 10.1166C16.7698 10.1166 17.1925 9.69395 17.1925 9.17255C17.1925 8.65114 16.7698 8.22845 16.2484 8.22845C15.727 8.22845 15.3043 8.65114 15.3043 9.17255C15.3043 9.69395 15.727 10.1166 16.2484 10.1166Z" fill="#999999"/>
</svg>
