<svg width="24" height="24" viewBox="0 0 24 24" fill="none" xmlns="http://www.w3.org/2000/svg">
<path fill-rule="evenodd" clip-rule="evenodd" d="M3.69727 7.26526C3.69727 5.74648 4.92848 4.51526 6.44727 4.51526H17.5527C19.0715 4.51526 20.3027 5.74647 20.3027 7.26526V16.7348C20.3027 18.2536 19.0715 19.4848 17.5527 19.4848H6.44727C4.92849 19.4848 3.69727 18.2536 3.69727 16.7348V7.26526ZM6.44727 6.01526C5.75691 6.01526 5.19727 6.5749 5.19727 7.26526V16.7348C5.19727 17.4252 5.75691 17.9848 6.44727 17.9848H17.5527C18.2431 17.9848 18.8027 17.4252 18.8027 16.7348V7.26526C18.8027 6.5749 18.2431 6.01526 17.5527 6.01526H6.44727ZM9.62062 8.42279C9.92387 8.41505 10.2019 8.59074 10.3251 8.86794L11.7125 11.9896L12.8305 10.5922C12.9866 10.397 13.2298 10.2924 13.4789 10.3134C13.728 10.3343 13.9503 10.478 14.0717 10.6965L16.432 14.9449C16.561 15.1772 16.5575 15.4605 16.4228 15.6895C16.288 15.9185 16.0421 16.0591 15.7764 16.0591H7.27954C7.03244 16.0591 6.8012 15.9374 6.6613 15.7337C6.52141 15.5301 6.49082 15.2705 6.57953 15.0399L8.93976 8.90331C9.04865 8.62019 9.31738 8.43053 9.62062 8.42279ZM9.68978 11.1318L8.37156 14.5591H14.5017L13.3034 12.4022L12.1136 13.8895C11.95 14.0939 11.6917 14.1983 11.432 14.1648C11.1723 14.1313 10.9489 13.9648 10.8426 13.7256L9.68978 11.1318ZM16.2484 10.1166C16.7698 10.1166 17.1925 9.69395 17.1925 9.17255C17.1925 8.65114 16.7698 8.22845 16.2484 8.22845C15.727 8.22845 15.3043 8.65114 15.3043 9.17255C15.3043 9.69395 15.727 10.1166 16.2484 10.1166Z" fill="#212121"/>
</svg>
