<svg width="24" height="25" viewBox="0 0 24 25" fill="currentColor" xmlns="http://www.w3.org/2000/svg">
<path fill-rule="evenodd" clip-rule="evenodd" d="M12 5.12415C10.7574 5.12415 9.75 6.1315 9.75 7.37415C9.75 8.61679 10.7574 9.62415 12 9.62415C13.2426 9.62415 14.25 8.61679 14.25 7.37415C14.25 6.1315 13.2426 5.12415 12 5.12415ZM8.25 7.37415C8.25 5.30308 9.92893 3.62415 12 3.62415C14.0711 3.62415 15.75 5.30308 15.75 7.37415C15.75 9.44521 14.0711 11.1241 12 11.1241C9.92893 11.1241 8.25 9.44521 8.25 7.37415ZM16.4383 11.8531C16.4629 11.7878 16.4889 11.7209 16.5163 11.6523C16.6699 11.2676 16.4826 10.8312 16.0979 10.6776C15.7132 10.524 15.2769 10.7113 15.1232 11.096C14.7971 11.9126 14.6315 12.5617 14.5587 13.1241H10.1902C10.1466 12.8059 10.0848 12.5387 10.0175 12.2924C9.97944 12.1531 9.9441 12.0337 9.9113 11.923L9.91129 11.9229L9.91129 11.9229C9.84282 11.6917 9.78543 11.4978 9.73758 11.2382C9.6625 10.8309 9.27141 10.5615 8.86406 10.6366C8.4567 10.7116 8.18734 11.1027 8.26242 11.5101C8.27344 11.5699 8.28534 11.6287 8.29789 11.6865C7.1255 12.0753 6.1372 12.7632 5.43185 13.5725C4.71779 14.3918 4.25 15.3894 4.25 16.3742C4.25 17.864 5.3 19.0662 6.67815 19.8538C7.28551 20.2008 7.98401 20.4859 8.74685 20.6975C9.12809 20.8335 9.53367 20.922 9.93094 20.9798C10.1727 21.0149 10.4219 21.0402 10.6754 21.0568C11.107 21.1012 11.5497 21.1242 12 21.1242C14.0393 21.1242 15.9225 20.6534 17.3219 19.8538C18.7 19.0662 19.75 17.864 19.75 16.3742C19.75 14.625 18.6193 12.7289 16.4383 11.8531ZM16.0464 13.3158C16.0196 13.5222 16.0106 13.7052 16.0106 13.8741C16.0106 14.0757 16.0554 14.4394 16.143 14.9309C16.2279 15.4076 16.3445 15.9592 16.4697 16.5138C16.6209 17.1832 16.778 17.8292 16.9055 18.3493C17.8313 17.7323 18.25 17.0214 18.25 16.3742C18.25 15.3064 17.5688 13.9968 16.0464 13.3158ZM10.8003 19.5618C11.4353 19.6017 12.1255 19.5811 12.801 19.5197C13.7139 19.4368 14.5656 19.2827 15.1695 19.1241C15.3065 19.0881 15.4253 19.0532 15.5256 19.0208L15.5023 18.9258L15.5023 18.9257C15.3661 18.3703 15.1774 17.6004 15.0066 16.8442C14.8791 16.2796 14.7569 15.703 14.6662 15.1941C14.6315 14.9994 14.6 14.807 14.5746 14.6241H10.2321C10.1764 15.4505 10.0126 16.4181 9.79277 17.2785C9.64488 17.8575 9.46425 18.4177 9.25859 18.8749C9.20521 18.9935 9.14811 19.1099 9.08702 19.2207C9.12414 19.2366 9.1628 19.2521 9.20303 19.2672C9.69964 19.4016 10.2353 19.5022 10.8003 19.5618ZM7.65807 18.6793C7.66434 18.671 7.67121 18.6616 7.67867 18.6509C7.73911 18.5646 7.81146 18.4355 7.89062 18.2595C8.04866 17.9082 8.20403 17.4374 8.33944 16.9073C8.61256 15.8381 8.77467 14.6476 8.75039 13.8984C8.74068 13.5987 8.71297 13.3556 8.6749 13.1428C7.80324 13.4507 7.07565 13.9694 6.56265 14.5581C6.01046 15.1916 5.75 15.8529 5.75 16.3742C5.75 17.0934 6.26701 17.8912 7.42236 18.5514C7.49877 18.5951 7.57737 18.6377 7.65807 18.6793Z"/>
</svg>
