<svg width="24" height="24" viewBox="0 0 24 24" fill="currentColor" xmlns="http://www.w3.org/2000/svg">
<circle cx="12" cy="12" r="8" stroke="#212121"/>
<path d="M8.46448 8.46448L15.5355 15.5355" stroke="white" stroke-linecap="round"/>
<path d="M15.5355 8.46448L8.46445 15.5355" stroke="white" stroke-linecap="round"/>
<path fill-rule="evenodd" clip-rule="evenodd" d="M12 3.5C7.30558 3.5 3.5 7.30558 3.5 12C3.5 16.6944 7.30558 20.5 12 20.5C16.6944 20.5 20.5 16.6944 20.5 12C20.5 7.30558 16.6944 3.5 12 3.5ZM8.81802 8.11092C8.62276 7.91566 8.30618 7.91566 8.11092 8.11092C7.91565 8.30619 7.91565 8.62277 8.11092 8.81803L11.2929 12L8.11089 15.182C7.91563 15.3773 7.91563 15.6938 8.11089 15.8891C8.30616 16.0844 8.62274 16.0844 8.818 15.8891L12 12.7071L15.182 15.8891C15.3772 16.0844 15.6938 16.0844 15.8891 15.8891C16.0844 15.6938 16.0844 15.3773 15.8891 15.182L12.7071 12L15.8891 8.81803C16.0843 8.62277 16.0843 8.30619 15.8891 8.11092C15.6938 7.91566 15.3772 7.91566 15.182 8.11092L12 11.2929L8.81802 8.11092Z"/>
</svg>
