<svg width="24" height="24" viewBox="0 0 24 24" fill="none" xmlns="http://www.w3.org/2000/svg">
<path fill-rule="evenodd" clip-rule="evenodd" d="M7.32083 6.61367C7.12556 6.41841 6.80898 6.41841 6.61372 6.61367C6.41846 6.80893 6.41846 7.12552 6.61372 7.32078L11.2929 11.9999L6.6137 16.6791C6.41844 16.8744 6.41844 17.191 6.6137 17.3862C6.80896 17.5815 7.12555 17.5815 7.32081 17.3862L12 12.7071L16.6792 17.3862C16.8745 17.5815 17.191 17.5815 17.3863 17.3862C17.5816 17.191 17.5816 16.8744 17.3863 16.6791L12.7071 11.9999L17.3863 7.32078C17.5815 7.12552 17.5815 6.80893 17.3863 6.61367C17.191 6.41841 16.8744 6.41841 16.6792 6.61367L12 11.2928L7.32083 6.61367Z" fill="#212121"/>
</svg>
