<svg width="24" height="24" viewBox="0 0 24 24" fill="none" xmlns="http://www.w3.org/2000/svg">
<path fill-rule="evenodd" clip-rule="evenodd" d="M12 4.5C7.85786 4.5 4.5 7.85786 4.5 12C4.5 16.1421 7.85786 19.5 12 19.5C16.1421 19.5 19.5 16.1421 19.5 12C19.5 7.85786 16.1421 4.5 12 4.5ZM3.5 12C3.5 7.30558 7.30558 3.5 12 3.5C16.6944 3.5 20.5 7.30558 20.5 12C20.5 16.6944 16.6944 20.5 12 20.5C7.30558 20.5 3.5 16.6944 3.5 12Z" fill="#212121"/>
<path fill-rule="evenodd" clip-rule="evenodd" d="M8.81802 8.11092C8.62276 7.91566 8.30618 7.91566 8.11092 8.11092C7.91565 8.30619 7.91565 8.62277 8.11092 8.81803L11.2929 12L8.11089 15.182C7.91563 15.3773 7.91563 15.6938 8.11089 15.8891C8.30616 16.0844 8.62274 16.0844 8.818 15.8891L12 12.7071L15.182 15.8891C15.3772 16.0844 15.6938 16.0844 15.8891 15.8891C16.0844 15.6938 16.0844 15.3773 15.8891 15.182L12.7071 12L15.8891 8.81803C16.0843 8.62277 16.0843 8.30619 15.8891 8.11092C15.6938 7.91566 15.3772 7.91566 15.182 8.11092L12 11.2929L8.81802 8.11092Z" fill="#212121"/>
</svg>
