<svg width="24" height="25" viewBox="0 0 24 25" fill="none" xmlns="http://www.w3.org/2000/svg">
<path fill-rule="evenodd" clip-rule="evenodd" d="M11.9041 5.88408L11.9041 7.22639C11.9041 7.88533 12.6561 8.26171 13.1836 7.86678L16.0304 5.73525C16.4585 5.41473 16.4576 4.77252 16.0287 4.45317L13.1818 2.33373C12.6541 1.94084 11.9041 2.31749 11.9041 2.97543L11.9041 4.37956C9.58041 4.55048 7.57707 5.56023 6.19045 7.09845C4.2712 9.22754 3.57902 12.3235 4.80972 15.4305C4.96226 15.8156 5.39811 16.0042 5.78321 15.8516C6.16832 15.6991 6.35684 15.2632 6.2043 14.8781C5.18458 12.3037 5.76519 9.8105 7.30459 8.10278C8.39745 6.89044 9.99641 6.05112 11.9041 5.88408ZM16.6439 16.431C18.1958 14.7346 18.7946 12.2457 17.7937 9.66391C17.644 9.2777 17.8357 8.84325 18.2219 8.69353C18.6081 8.54381 19.0426 8.73552 19.1923 9.12172C20.4002 12.2377 19.6854 15.3285 17.7507 17.4435C16.3528 18.9715 14.3422 19.9666 12.0173 20.1205L12.0071 21.5246C12.0022 22.1825 11.2495 22.5537 10.7247 22.157L7.89339 20.0168C7.46678 19.6943 7.4706 19.0521 7.90102 18.7347L10.7634 16.624C11.2937 16.233 12.043 16.6149 12.0381 17.2738L12.0283 18.616C13.9372 18.463 15.5422 17.6353 16.6439 16.431Z" fill="#212121"/>
</svg>
