<svg width="25" height="25" viewBox="0 0 25 25" fill="currentColor" xmlns="http://www.w3.org/2000/svg">
<path fill-rule="evenodd" clip-rule="evenodd" d="M4.5 10.8741C4.5 7.56044 7.18629 4.87415 10.5 4.87415C13.8137 4.87415 16.5 7.56044 16.5 10.8741C16.5 14.1879 13.8137 16.8741 10.5 16.8741C7.18629 16.8741 4.5 14.1879 4.5 10.8741ZM10.5 2.87415C6.08172 2.87415 2.5 6.45587 2.5 10.8741C2.5 15.2924 6.08172 18.8741 10.5 18.8741C12.3487 18.8741 14.051 18.2471 15.4056 17.194L20.7929 22.5813C21.1834 22.9718 21.8166 22.9718 22.2071 22.5813C22.5976 22.1907 22.5976 21.5576 22.2071 21.167L16.8199 15.7798C17.8729 14.4251 18.5 12.7229 18.5 10.8741C18.5 6.45587 14.9183 2.87415 10.5 2.87415Z"/>
</svg>
