<svg width="24" height="24" viewBox="0 0 24 24" fill="none" xmlns="http://www.w3.org/2000/svg">
<g clip-path="url(#clip0_597_1755)">
<path fill-rule="evenodd" clip-rule="evenodd" d="M12 8.75C10.2051 8.75 8.75 10.2051 8.75 12C8.75 13.7949 10.2051 15.25 12 15.25C13.7949 15.25 15.25 13.7949 15.25 12C15.25 10.2051 13.7949 8.75 12 8.75ZM7.25 12C7.25 9.37665 9.37665 7.25 12 7.25C14.6234 7.25 16.75 9.37665 16.75 12C16.75 14.6234 14.6234 16.75 12 16.75C9.37665 16.75 7.25 14.6234 7.25 12Z" fill="#212121"/>
<path fill-rule="evenodd" clip-rule="evenodd" d="M16.1325 2.97598C16.9165 3.27776 17.4916 3.95968 17.6567 4.78335L17.8754 5.87442C17.9642 6.31704 18.2846 6.67742 18.7139 6.81724L19.6923 7.13595C20.362 7.35409 20.9096 7.84279 21.2023 8.48339C21.5647 9.27655 21.4908 10.2007 21.0069 10.9262L20.4394 11.7772C20.1886 12.1532 20.1604 12.6353 20.3655 13.0381L20.9829 14.2501C21.3054 14.8832 21.3117 15.6311 20.9999 16.2696C20.6901 16.9039 20.102 17.3573 19.4097 17.4953L18.0758 17.7614C17.6325 17.8498 17.2715 18.1706 17.1316 18.6004L16.7077 19.903C16.5034 20.5307 16.0344 21.0373 15.4242 21.2891C14.7301 21.5756 13.9388 21.4977 13.3139 21.0812L12.1689 20.318C11.7933 20.0676 11.3118 20.0393 10.9094 20.2438L9.56522 20.9268C8.94147 21.2438 8.20262 21.2379 7.58393 20.9112C7.01142 20.6089 6.60531 20.065 6.47804 19.4302L6.18167 17.9518C6.09293 17.5092 5.77244 17.1488 5.34321 17.009L4.0222 16.5787C3.32737 16.3524 2.78625 15.8019 2.57187 15.1033C2.37421 14.4592 2.47642 13.7603 2.85025 13.1998L3.61767 12.0491C3.86846 11.673 3.89671 11.1909 3.69155 10.7882L3.06133 9.55094C2.74866 8.93714 2.7357 8.21363 3.02617 7.58902C3.32735 6.9414 3.91922 6.47615 4.61965 6.33645L5.98132 6.06487C6.42459 5.97646 6.78559 5.65565 6.92547 5.22584L7.37498 3.84458C7.5858 3.19677 8.0859 2.68384 8.72816 2.45668C9.37888 2.22654 10.1 2.3164 10.6743 2.6992L11.8882 3.50824C12.2638 3.75861 12.7452 3.78699 13.1477 3.58249L14.1397 3.07839C14.7595 2.76347 15.4837 2.72625 16.1325 2.97598ZM16.1859 5.0782C16.1218 4.75812 15.8983 4.49312 15.5936 4.37585C15.3415 4.27881 15.0601 4.29327 14.8193 4.41565L13.8272 4.91975C12.9418 5.36965 11.8826 5.30721 11.0562 4.7564L9.8424 3.94736C9.66118 3.82658 9.43364 3.79822 9.22832 3.87084C9.02566 3.94252 8.86787 4.10436 8.80135 4.30877L8.35184 5.69003C8.04411 6.6356 7.2499 7.3414 6.27472 7.5359L4.91305 7.80748C4.68151 7.85366 4.48585 8.00746 4.38629 8.22154C4.29027 8.42802 4.29455 8.66719 4.39791 8.8701L5.02813 10.1073C5.47948 10.9934 5.41734 12.0541 4.8656 12.8813L4.09818 14.0321C3.97422 14.2179 3.94033 14.4496 4.00587 14.6632C4.07696 14.8949 4.25639 15.0774 4.48679 15.1525L5.80779 15.5828C6.7521 15.8904 7.45718 16.6832 7.6524 17.657L7.94878 19.1353C7.9874 19.328 8.11065 19.493 8.2844 19.5848C8.47217 19.684 8.6964 19.6857 8.8857 19.5895L10.2299 18.9065C11.1153 18.4566 12.1744 18.519 13.0008 19.0698L14.1459 19.833C14.3549 19.9724 14.6197 19.9985 14.8519 19.9026C15.056 19.8183 15.213 19.6488 15.2813 19.4388L15.7052 18.1362C16.013 17.1907 16.8072 16.4849 17.7824 16.2904L19.1163 16.0243C19.3495 15.9778 19.5477 15.8251 19.652 15.6113C19.7571 15.3962 19.755 15.1442 19.6463 14.9309L19.029 13.7189C18.5776 12.8329 18.6398 11.7722 19.1915 10.9449L19.759 10.094C19.9545 9.80077 19.9844 9.42727 19.838 9.10673C19.7197 8.84785 19.4984 8.65035 19.2277 8.56219L18.2493 8.24348C17.305 7.93588 16.5999 7.14303 16.4047 6.16927L16.1859 5.0782Z" fill="#212121"/>
</g>
<defs>
<clipPath id="clip0_597_1755">
<rect width="24" height="24" fill="white"/>
</clipPath>
</defs>
</svg>
