<svg width="24" height="24" viewBox="0 0 24 24" fill="currentColor" xmlns="http://www.w3.org/2000/svg">
<path d="M12 2L14.4874 5.99478L19.0711 4.92893L18.0052 9.51256L22 12L18.0052 14.4874L19.0711 19.0711L14.4874 18.0052L12 22L9.51256 18.0052L4.92893 19.0711L5.99478 14.4874L2 12L5.99478 9.51256L4.92893 4.92893L9.51256 5.99478L12 2Z"/>
<path d="M8.39005 12.5929L10.4066 14.665L15.695 9.37668" stroke="white" stroke-width="2" stroke-linecap="round" stroke-linejoin="round"/>
<path d="M12 2L14.4874 5.99478L19.0711 4.92893L18.0052 9.51256L22 12L18.0052 14.4874L19.0711 19.0711L14.4874 18.0052L12 22L9.51256 18.0052L4.92893 19.0711L5.99478 14.4874L2 12L5.99478 9.51256L4.92893 4.92893L9.51256 5.99478L12 2Z"/>
<path fill-rule="evenodd" clip-rule="evenodd" d="M16.4021 8.66957C16.7926 9.0601 16.7926 9.69326 16.4021 10.0838L11.1138 15.3721C10.9245 15.5613 10.6674 15.6668 10.3998 15.665C10.1323 15.6632 9.87661 15.5542 9.68999 15.3625L7.6734 13.2903C7.28822 12.8945 7.29683 12.2614 7.69262 11.8762C8.08842 11.491 8.72153 11.4996 9.10671 11.8954L10.4163 13.2411L14.9879 8.66957C15.3784 8.27905 16.0116 8.27905 16.4021 8.66957Z" fill="white"/>
</svg>
