<svg width="25" height="25" viewBox="0 0 25 25" fill="currentColor" xmlns="http://www.w3.org/2000/svg">
<path fill-rule="evenodd" clip-rule="evenodd" d="M11.4612 6.1702C11.7655 5.60044 12.3589 5.24463 13.0048 5.24463H20.4153C21.6834 5.24463 22.5305 6.55125 22.0129 7.70888L17.1941 18.4875C17.1934 18.4907 17.1927 18.4948 17.1918 18.4999C17.1204 18.9049 16.9114 19.2507 16.7137 19.5068C16.5101 19.7706 16.2759 19.9935 16.0822 20.1561C15.9922 20.2316 15.8913 20.299 15.78 20.354C15.2095 20.6362 14.5257 20.789 13.7989 20.8757C13.0664 20.963 12.2425 20.9881 11.3686 20.9881C6.79547 20.9881 2.75 16.9663 2.75 12.3885C2.75 10.6991 3.16273 9.0045 3.83523 7.73491C4.17127 7.10052 4.59097 6.53678 5.09131 6.13966C5.59789 5.73758 6.221 5.48344 6.91219 5.56543C6.95815 5.57088 7.00762 5.57539 7.06287 5.57977C7.39895 5.60639 7.76668 5.71952 8.11414 5.85527C8.47269 5.99534 8.86027 6.17995 9.24969 6.38425C9.78139 6.6632 10.3356 6.98894 10.852 7.31082L11.4612 6.1702ZM10.6891 8.98677C10.0323 8.55672 9.26221 8.08472 8.55282 7.71255C8.19237 7.52344 7.85778 7.36552 7.56831 7.25243C7.26776 7.13502 7.06162 7.08437 6.94444 7.07509C6.87992 7.06998 6.80886 7.06369 6.73551 7.05498C6.54147 7.03197 6.30647 7.09024 6.02384 7.31456C5.73498 7.54383 5.43438 7.92048 5.16076 8.43703C4.61395 9.46933 4.25 10.9189 4.25 12.3885C4.25 16.1332 7.61924 19.4881 11.3686 19.4881C12.2224 19.4881 12.9769 19.463 13.6214 19.3862C14.2715 19.3087 14.7635 19.1834 15.1151 19.0095C15.1132 19.0104 15.1143 19.0101 15.1179 19.0071C15.2568 18.8905 15.4075 18.7442 15.5264 18.5902C15.6512 18.4285 15.7024 18.308 15.7145 18.2395C15.7251 18.1794 15.7428 18.0908 15.7775 17.9915C16.0767 16.4163 15.4018 14.625 14.2751 12.9274C13.1607 11.2483 11.6975 9.8031 10.6891 8.98677ZM17.0301 15.179L20.6436 7.09667C20.7175 6.93129 20.5965 6.74463 20.4153 6.74463H13.0048C12.9125 6.74463 12.8278 6.79546 12.7843 6.87685L12.0794 8.19676C13.1344 9.11765 14.4666 10.5034 15.5249 12.0979C16.1469 13.0352 16.7003 14.084 17.0301 15.179ZM17.1853 18.5071L17.1855 18.5067Z"/>
<path fill-rule="evenodd" clip-rule="evenodd" d="M6.10565 16.8659C7.04623 16.8158 8.40974 16.4996 9.81402 15.8338C9.86161 15.8112 9.90918 15.7883 9.95672 15.765C9.70251 15.3553 9.41796 14.9484 9.10546 14.553C8.72584 14.0727 8.31346 13.62 7.87564 13.2075C7.81155 13.2925 7.74882 13.378 7.68749 13.4637C7.1547 14.2081 6.73932 14.9574 6.46348 15.6344C6.27007 16.1091 6.15463 16.5252 6.10565 16.8659ZM6.71526 12.2552C6.63043 12.3667 6.54788 12.4786 6.46769 12.5907C5.87578 13.4178 5.40001 14.2692 5.07436 15.0684C4.75334 15.8562 4.55801 16.6427 4.5796 17.3259C4.58828 17.6003 4.74336 17.8357 4.96754 17.9593C5.08611 18.191 5.32212 18.3545 5.60073 18.3674C6.82666 18.4245 8.65664 18.0426 10.4566 17.1892C10.5272 17.1557 10.5979 17.1215 10.6686 17.0864C11.1495 18.1354 11.4106 19.1426 11.4106 19.9611C11.4106 20.3753 11.7464 20.7111 12.1606 20.7111C12.5748 20.7111 12.9106 20.3753 12.9106 19.9611C12.9106 18.8543 12.566 17.5925 11.9769 16.3428C13.2623 15.5101 14.4738 14.3936 15.3523 12.9513C15.5678 12.5975 15.4557 12.1361 15.1019 11.9206C14.7481 11.7051 14.2867 11.8172 14.0712 12.171C13.3522 13.3515 12.3524 14.2952 11.2592 15.0199C10.9639 14.5398 10.6362 14.0708 10.2823 13.623C9.84987 13.0758 9.36891 12.5485 8.84707 12.0627C9.74263 11.1242 10.7988 10.3069 11.9411 9.7833C12.3177 9.61072 12.483 9.16556 12.3104 8.78901C12.1378 8.41246 11.6927 8.24712 11.3161 8.4197C9.93968 9.05057 8.70667 10.0211 7.68712 11.1062C6.56534 10.2942 5.30868 9.69798 3.97366 9.47792C3.56496 9.41055 3.17903 9.68725 3.11166 10.096C3.0443 10.5047 3.321 10.8906 3.7297 10.9579C4.76255 11.1282 5.77646 11.5928 6.71526 12.2552Z"/>
</svg>
