<svg width="25" height="25" viewBox="0 0 25 25" fill="none" xmlns="http://www.w3.org/2000/svg">
<path fill-rule="evenodd" clip-rule="evenodd" d="M4.89696 6.30582C4.48138 6.68719 4.12681 7.18446 3.83523 7.73491C3.59236 8.19342 3.38336 8.70737 3.21546 9.25648C4.86178 9.4569 6.37011 10.1369 7.67822 11.1041C8.58227 10.1645 9.62409 9.31539 10.7459 8.70541C8.99256 7.41499 6.99869 6.5144 4.89696 6.30582ZM2.87976 10.7271C2.79509 11.2711 2.75 11.83 2.75 12.3885C2.75 14.0892 3.30838 15.7132 4.24476 17.0827C4.3205 16.5331 4.51139 15.9378 4.76973 15.3442C5.13061 14.515 5.65216 13.6233 6.28838 12.7565C6.41587 12.5828 6.54857 12.4093 6.68616 12.2368C5.54945 11.4191 4.27338 10.875 2.92323 10.7329C2.9086 10.7314 2.8941 10.7294 2.87976 10.7271ZM5.61772 18.6665C7.17096 20.0929 9.21106 20.9881 11.3686 20.9881C11.3874 20.9881 11.4061 20.9881 11.4248 20.988C11.4248 20.9857 11.4248 20.9833 11.4248 20.9809C11.4248 19.7813 11.1187 18.4531 10.558 17.1577C10.4356 17.2205 10.3133 17.2812 10.1913 17.3399C8.53876 18.1345 6.8482 18.5921 5.61772 18.6665ZM12.9248 20.9504C13.2279 20.9331 13.52 20.9089 13.7989 20.8757C14.5257 20.789 15.2095 20.6362 15.78 20.354C15.8913 20.299 15.9922 20.2316 16.0822 20.1561C16.2759 19.9935 16.5101 19.7706 16.7137 19.5068C16.8973 19.2691 17.0906 18.9539 17.1744 18.5858C17.0408 17.1173 16.3096 15.2268 15.0916 13.3542C14.2383 14.5982 13.0872 15.6105 11.8645 16.4029C12.5376 17.905 12.9195 19.481 12.9248 20.9504ZM18.1878 16.2647C17.5419 14.3239 16.3172 12.2216 14.7224 10.3732C13.6564 9.13758 12.3981 7.9838 10.9926 7.0475L11.4612 6.1702C11.7655 5.60044 12.3589 5.24463 13.0048 5.24463H20.4153C21.6834 5.24463 22.5305 6.55125 22.0129 7.70888L18.1878 16.2647ZM9.54123 15.9881C8.10195 16.6802 6.71232 17.0531 5.75271 17.151C5.81379 16.82 5.94068 16.4125 6.14512 15.9428C6.45495 15.2309 6.91683 14.4353 7.49762 13.6441C7.60687 13.4952 7.71982 13.3472 7.83618 13.2005C8.23437 13.5852 8.60829 14.004 8.95417 14.4494C9.29452 14.8878 9.60403 15.3474 9.87995 15.8197C9.76735 15.8775 9.65438 15.9337 9.54123 15.9881ZM10.139 13.5295C9.73998 13.0156 9.30148 12.5261 8.82752 12.0735C9.76278 11.1149 10.8324 10.2914 11.9411 9.78326C11.9671 9.77135 11.9921 9.75814 12.016 9.74374C12.5736 10.2472 13.099 10.7877 13.5867 11.353C13.7855 11.5834 13.977 11.8167 14.1609 12.0519C14.1278 12.0879 14.0976 12.1276 14.0712 12.171C13.3681 13.3254 12.331 14.2924 11.1742 15.0618C10.8638 14.5305 10.5173 14.0168 10.139 13.5295Z" fill="#FF4040"/>
</svg>
