<svg width="16" height="16" viewBox="0 0 16 16" fill="none" xmlns="http://www.w3.org/2000/svg">
<path fill-rule="evenodd" clip-rule="evenodd" d="M12.0545 5.46539C11.2283 4.4994 9.9595 3.70663 7.98455 3.74408C5.99756 3.78176 4.69815 4.59159 3.86563 5.54706C3.05601 6.47625 2.68017 7.55425 2.57618 8.22022C2.94801 9.63275 4.50382 12.2815 7.97507 12.2815C11.4306 12.2815 13.0219 9.65727 13.4216 8.2375C13.25 7.51156 12.8529 6.39886 12.0545 5.46539ZM12.8145 4.81541C13.8016 5.96956 14.2491 7.32784 14.4251 8.14114L14.4496 8.25475L14.4216 8.36755C14.0151 10.0018 12.1607 13.2815 7.97507 13.2815C3.78673 13.2815 1.96846 9.99816 1.58093 8.36211L1.56006 8.27398L1.57142 8.18413C1.67646 7.35363 2.12053 6.02766 3.11168 4.89013C4.11723 3.73607 5.67764 2.78765 7.96559 2.74426C10.2656 2.70065 11.8117 3.64293 12.8145 4.81541Z" fill="#999999"/>
<path fill-rule="evenodd" clip-rule="evenodd" d="M7.99998 9.97564C9.0911 9.97564 9.97562 9.09112 9.97562 8.00001C9.97562 6.9089 9.0911 6.02438 7.99998 6.02438C6.90887 6.02438 6.02435 6.9089 6.02435 8.00001C6.02435 9.09112 6.90887 9.97564 7.99998 9.97564ZM7.99998 10.9756C9.64338 10.9756 10.9756 9.6434 10.9756 8.00001C10.9756 6.35661 9.64338 5.02438 7.99998 5.02438C6.35659 5.02438 5.02435 6.35661 5.02435 8.00001C5.02435 9.6434 6.35659 10.9756 7.99998 10.9756Z" fill="#999999"/>
</svg>
