<svg width="24" height="25" viewBox="0 0 24 25" fill="none" xmlns="http://www.w3.org/2000/svg">
<path fill-rule="evenodd" clip-rule="evenodd" d="M22.2077 12.5C22.2077 12.0858 21.8719 11.75 21.4577 11.75L12.75 11.75L12.75 3.0423C12.75 2.62808 12.4142 2.2923 12 2.2923C11.5858 2.2923 11.25 2.62808 11.25 3.0423L11.25 11.75L2.5423 11.75C2.12809 11.75 1.7923 12.0858 1.7923 12.5C1.7923 12.9142 2.12809 13.25 2.5423 13.25L11.25 13.25L11.25 21.9577C11.25 22.3719 11.5858 22.7077 12 22.7077C12.4142 22.7077 12.75 22.3719 12.75 21.9577L12.75 13.25L21.4577 13.25C21.8719 13.25 22.2077 12.9142 22.2077 12.5Z" fill="#212121"/>
</svg>
