<svg width="24" height="25" viewBox="0 0 24 25" fill="none" xmlns="http://www.w3.org/2000/svg">
<path fill-rule="evenodd" clip-rule="evenodd" d="M22.4577 12.5C22.4577 11.9477 22.01 11.5 21.4577 11.5L13 11.5L13 3.0423C13 2.49001 12.5523 2.0423 12 2.0423C11.4477 2.0423 11 2.49001 11 3.0423L11 11.5L2.5423 11.5C1.99001 11.5 1.5423 11.9477 1.54229 12.5C1.5423 13.0523 1.99001 13.5 2.5423 13.5L11 13.5L11 21.9577C11 22.51 11.4477 22.9577 12 22.9577C12.5523 22.9577 13 22.51 13 21.9577L13 13.5L21.4577 13.5C22.01 13.5 22.4577 13.0523 22.4577 12.5Z" fill="#212121"/>
</svg>
