<svg width="24" height="24" viewBox="0 0 24 24" fill="currentColor" xmlns="http://www.w3.org/2000/svg">
<path fill-rule="evenodd" clip-rule="evenodd" d="M18.0818 8.19807C16.8425 6.74909 14.9393 5.55993 11.9769 5.61611C8.99637 5.67263 7.04725 6.88737 5.79848 8.32058C4.58405 9.71436 4.02028 11.3314 3.8643 12.3303C4.42204 14.4491 6.75576 18.4222 11.9626 18.4222C17.1459 18.4222 19.5329 14.4859 20.1325 12.3562C19.875 11.2673 19.2794 9.59827 18.0818 8.19807ZM19.2217 7.2231C20.7024 8.95433 21.3737 10.9917 21.6376 12.2117L21.6745 12.3821L21.6324 12.5513C21.0227 15.0028 18.241 19.9222 11.9626 19.9222C5.68013 19.9222 2.95273 14.9972 2.37143 12.5432L2.34012 12.411L2.35717 12.2762C2.51473 11.0304 3.18083 9.04148 4.66755 7.33518C6.17588 5.60409 8.51649 4.18146 11.9484 4.11638C15.3984 4.05096 17.7175 5.46438 19.2217 7.2231Z"/>
<path fill-rule="evenodd" clip-rule="evenodd" d="M12 14.9635C13.6367 14.9635 14.9635 13.6367 14.9635 12C14.9635 10.3633 13.6367 9.03656 12 9.03656C10.3633 9.03656 9.03656 10.3633 9.03656 12C9.03656 13.6367 10.3633 14.9635 12 14.9635ZM12 16.4635C14.4651 16.4635 16.4635 14.4651 16.4635 12C16.4635 9.53491 14.4651 7.53656 12 7.53656C9.53491 7.53656 7.53656 9.53491 7.53656 12C7.53656 14.4651 9.53491 16.4635 12 16.4635Z"/>
</svg>
